<mxfile host="Electron" agent="Mozilla/5.0 (Windows NT 10.0; Win64; x64) AppleWebKit/537.36 (KHTML, like Gecko) draw.io/28.2.5 Chrome/138.0.7204.251 Electron/37.6.1 Safari/537.36" version="28.2.5">
  <diagram name="หน้า-1" id="v0q8oLIGSdoUQfQ8h6Zp">
    <mxGraphModel dx="1042" dy="626" grid="1" gridSize="10" guides="1" tooltips="1" connect="1" arrows="1" fold="1" page="1" pageScale="1" pageWidth="827" pageHeight="1169" math="0" shadow="0">
      <root>
        <mxCell id="0" />
        <mxCell id="1" parent="0" />
        <mxCell id="y_OehHx0rF6qJ58uH6Yp-2" value="เริ่มต้น" style="shape=mxgraph.flowchart.terminator;whiteSpace=wrap;html=1;fontFamily=Inter;fillColor=#dae8fc;strokeColor=#6c8ebf;" parent="1" vertex="1">
          <mxGeometry x="69" y="60" width="100" height="40" as="geometry" />
        </mxCell>
        <mxCell id="y_OehHx0rF6qJ58uH6Yp-3" value="กำหนดค่าเริ่มต้น:&lt;br&gt;arr, n, i, j, key, pos32" style="shape=mxgraph.flowchart.process;whiteSpace=wrap;html=1;fontFamily=Inter;fillColor=#d5e8d4;strokeColor=#82b366;" parent="1" vertex="1">
          <mxGeometry x="44" y="120" width="150" height="50" as="geometry" />
        </mxCell>
        <mxCell id="y_OehHx0rF6qJ58uH6Yp-4" value="แสดงข้อความ &quot;Old Series : &quot;" style="shape=mxgraph.flowchart.data;whiteSpace=wrap;html=1;fontFamily=Inter;fillColor=#fff2cc;strokeColor=#d6b656;" parent="1" vertex="1">
          <mxGeometry x="44" y="190" width="150" height="50" as="geometry" />
        </mxCell>
        <mxCell id="y_OehHx0rF6qJ58uH6Yp-5" value="กำหนด i=0" style="shape=mxgraph.flowchart.process;whiteSpace=wrap;html=1;fontFamily=Inter;fillColor=#d5e8d4;strokeColor=#82b366;" parent="1" vertex="1">
          <mxGeometry x="44" y="260" width="150" height="50" as="geometry" />
        </mxCell>
        <mxCell id="y_OehHx0rF6qJ58uH6Yp-6" value="i &amp;lt; n?" style="shape=mxgraph.flowchart.decision;whiteSpace=wrap;html=1;fontFamily=Inter;fillColor=#f8cecc;strokeColor=#b85450;" parent="1" vertex="1">
          <mxGeometry x="64" y="330" width="110" height="70" as="geometry" />
        </mxCell>
        <mxCell id="y_OehHx0rF6qJ58uH6Yp-7" value="แสดงค่า arr[i]" style="shape=mxgraph.flowchart.data;whiteSpace=wrap;html=1;fontFamily=Inter;fillColor=#fff2cc;strokeColor=#d6b656;" parent="1" vertex="1">
          <mxGeometry x="234" y="335" width="120" height="60" as="geometry" />
        </mxCell>
        <mxCell id="y_OehHx0rF6qJ58uH6Yp-8" value="i &amp;lt; n-1?" style="shape=mxgraph.flowchart.decision;whiteSpace=wrap;html=1;fontFamily=Inter;fillColor=#f8cecc;strokeColor=#b85450;" parent="1" vertex="1">
          <mxGeometry x="439" y="330" width="110" height="70" as="geometry" />
        </mxCell>
        <mxCell id="y_OehHx0rF6qJ58uH6Yp-9" value="แสดงข้อความ &quot;, &quot;" style="shape=mxgraph.flowchart.data;whiteSpace=wrap;html=1;fontFamily=Inter;fillColor=#fff2cc;strokeColor=#d6b656;" parent="1" vertex="1">
          <mxGeometry x="650" y="335" width="120" height="60" as="geometry" />
        </mxCell>
        <mxCell id="y_OehHx0rF6qJ58uH6Yp-10" value="เพิ่มค่า i=i+1" style="shape=mxgraph.flowchart.process;whiteSpace=wrap;html=1;fontFamily=Inter;fillColor=#d5e8d4;strokeColor=#82b366;" parent="1" vertex="1">
          <mxGeometry x="434" y="450" width="120" height="40" as="geometry" />
        </mxCell>
        <mxCell id="y_OehHx0rF6qJ58uH6Yp-11" value="ขึ้นบรรทัดใหม่ (&quot;\n&quot;)" style="shape=mxgraph.flowchart.data;whiteSpace=wrap;html=1;fontFamily=Inter;fillColor=#fff2cc;strokeColor=#d6b656;" parent="1" vertex="1">
          <mxGeometry x="44" y="430" width="150" height="50" as="geometry" />
        </mxCell>
        <mxCell id="y_OehHx0rF6qJ58uH6Yp-12" value="กำหนด i=1 (เริ่ม Insertion Sort)" style="shape=mxgraph.flowchart.process;whiteSpace=wrap;html=1;fontFamily=Inter;fillColor=#d5e8d4;strokeColor=#82b366;" parent="1" vertex="1">
          <mxGeometry x="44" y="500" width="150" height="50" as="geometry" />
        </mxCell>
        <mxCell id="y_OehHx0rF6qJ58uH6Yp-13" value="i &amp;lt; n?" style="shape=mxgraph.flowchart.decision;whiteSpace=wrap;html=1;fontFamily=Inter;fillColor=#f8cecc;strokeColor=#b85450;" parent="1" vertex="1">
          <mxGeometry x="64" y="570" width="110" height="70" as="geometry" />
        </mxCell>
        <mxCell id="y_OehHx0rF6qJ58uH6Yp-14" value="key=arr[i]&lt;br&gt;j=i−1" style="shape=mxgraph.flowchart.process;whiteSpace=wrap;html=1;fontFamily=Inter;fillColor=#d5e8d4;strokeColor=#82b366;" parent="1" vertex="1">
          <mxGeometry x="234" y="575" width="150" height="60" as="geometry" />
        </mxCell>
        <mxCell id="y_OehHx0rF6qJ58uH6Yp-15" value="j≥0 &lt;b&gt;และ&lt;/b&gt; arr[j] &amp;gt; key?" style="shape=mxgraph.flowchart.decision;whiteSpace=wrap;html=1;fontFamily=Inter;fillColor=#f8cecc;strokeColor=#b85450;" parent="1" vertex="1">
          <mxGeometry x="464" y="570" width="120" height="70" as="geometry" />
        </mxCell>
        <mxCell id="y_OehHx0rF6qJ58uH6Yp-16" value="เลื่อนตำแหน่ง:&lt;br&gt;arr[j+1]=arr[j]" style="shape=mxgraph.flowchart.process;whiteSpace=wrap;html=1;fontFamily=Inter;fillColor=#d5e8d4;strokeColor=#82b366;" parent="1" vertex="1">
          <mxGeometry x="624" y="515" width="120" height="60" as="geometry" />
        </mxCell>
        <mxCell id="y_OehHx0rF6qJ58uH6Yp-17" value="ลดค่า j=j−1" style="shape=mxgraph.flowchart.process;whiteSpace=wrap;html=1;fontFamily=Inter;fillColor=#d5e8d4;strokeColor=#82b366;" parent="1" vertex="1">
          <mxGeometry x="624" y="600" width="120" height="40" as="geometry" />
        </mxCell>
        <mxCell id="y_OehHx0rF6qJ58uH6Yp-18" value="วาง key เข้าที่:&lt;br&gt;arr[j+1]=key" style="shape=mxgraph.flowchart.process;whiteSpace=wrap;html=1;fontFamily=Inter;fillColor=#d5e8d4;strokeColor=#82b366;" parent="1" vertex="1">
          <mxGeometry x="234" y="670" width="150" height="60" as="geometry" />
        </mxCell>
        <mxCell id="y_OehHx0rF6qJ58uH6Yp-19" value="เพิ่มค่า i=i+1" style="shape=mxgraph.flowchart.process;whiteSpace=wrap;html=1;fontFamily=Inter;fillColor=#d5e8d4;strokeColor=#82b366;" parent="1" vertex="1">
          <mxGeometry x="234" y="760" width="150" height="40" as="geometry" />
        </mxCell>
        <mxCell id="y_OehHx0rF6qJ58uH6Yp-20" value="แสดงข้อความ &quot;New Series : &quot;" style="shape=mxgraph.flowchart.data;whiteSpace=wrap;html=1;fontFamily=Inter;fillColor=#fff2cc;strokeColor=#d6b656;" parent="1" vertex="1">
          <mxGeometry x="44" y="665" width="150" height="50" as="geometry" />
        </mxCell>
        <mxCell id="y_OehHx0rF6qJ58uH6Yp-21" value="กำหนด i=0 (แสดงผลเรียงแล้ว)" style="shape=mxgraph.flowchart.process;whiteSpace=wrap;html=1;fontFamily=Inter;fillColor=#d5e8d4;strokeColor=#82b366;" parent="1" vertex="1">
          <mxGeometry x="44" y="735" width="150" height="50" as="geometry" />
        </mxCell>
        <mxCell id="y_OehHx0rF6qJ58uH6Yp-22" value="i &amp;lt; n?" style="shape=mxgraph.flowchart.decision;whiteSpace=wrap;html=1;fontFamily=Inter;fillColor=#f8cecc;strokeColor=#b85450;" parent="1" vertex="1">
          <mxGeometry x="64" y="805" width="110" height="70" as="geometry" />
        </mxCell>
        <mxCell id="y_OehHx0rF6qJ58uH6Yp-23" value="แสดงค่า arr[i]" style="shape=mxgraph.flowchart.data;whiteSpace=wrap;html=1;fontFamily=Inter;fillColor=#fff2cc;strokeColor=#d6b656;" parent="1" vertex="1">
          <mxGeometry x="234" y="810" width="120" height="60" as="geometry" />
        </mxCell>
        <mxCell id="y_OehHx0rF6qJ58uH6Yp-24" value="i &amp;lt; n-1?" style="shape=mxgraph.flowchart.decision;whiteSpace=wrap;html=1;fontFamily=Inter;fillColor=#f8cecc;strokeColor=#b85450;" parent="1" vertex="1">
          <mxGeometry x="439" y="805" width="110" height="70" as="geometry" />
        </mxCell>
        <mxCell id="y_OehHx0rF6qJ58uH6Yp-25" value="แสดงข้อความ &quot;, &quot;" style="shape=mxgraph.flowchart.data;whiteSpace=wrap;html=1;fontFamily=Inter;fillColor=#fff2cc;strokeColor=#d6b656;" parent="1" vertex="1">
          <mxGeometry x="600" y="810" width="120" height="60" as="geometry" />
        </mxCell>
        <mxCell id="y_OehHx0rF6qJ58uH6Yp-26" value="เพิ่มค่า i=i+1" style="shape=mxgraph.flowchart.process;whiteSpace=wrap;html=1;fontFamily=Inter;fillColor=#d5e8d4;strokeColor=#82b366;" parent="1" vertex="1">
          <mxGeometry x="434" y="920" width="120" height="40" as="geometry" />
        </mxCell>
        <mxCell id="y_OehHx0rF6qJ58uH6Yp-27" value="ขึ้นบรรทัดใหม่ (&quot;\n&quot;)" style="shape=mxgraph.flowchart.data;whiteSpace=wrap;html=1;fontFamily=Inter;fillColor=#fff2cc;strokeColor=#d6b656;" parent="1" vertex="1">
          <mxGeometry x="44" y="895" width="150" height="50" as="geometry" />
        </mxCell>
        <mxCell id="y_OehHx0rF6qJ58uH6Yp-28" value="กำหนด i=0 (เริ่มหาตำแหน่ง 32)" style="shape=mxgraph.flowchart.process;whiteSpace=wrap;html=1;fontFamily=Inter;fillColor=#d5e8d4;strokeColor=#82b366;" parent="1" vertex="1">
          <mxGeometry x="44" y="965" width="150" height="50" as="geometry" />
        </mxCell>
        <mxCell id="y_OehHx0rF6qJ58uH6Yp-29" value="i &amp;lt; n?" style="shape=mxgraph.flowchart.decision;whiteSpace=wrap;html=1;fontFamily=Inter;fillColor=#f8cecc;strokeColor=#b85450;" parent="1" vertex="1">
          <mxGeometry x="64" y="1035" width="110" height="70" as="geometry" />
        </mxCell>
        <mxCell id="y_OehHx0rF6qJ58uH6Yp-30" value="arr[i]==32?" style="shape=mxgraph.flowchart.decision;whiteSpace=wrap;html=1;fontFamily=Inter;fillColor=#f8cecc;strokeColor=#b85450;" parent="1" vertex="1">
          <mxGeometry x="234" y="1035" width="120" height="70" as="geometry" />
        </mxCell>
        <mxCell id="y_OehHx0rF6qJ58uH6Yp-31" value="บันทึกตำแหน่ง:&lt;br&gt;pos32=i" style="shape=mxgraph.flowchart.process;whiteSpace=wrap;html=1;fontFamily=Inter;fillColor=#d5e8d4;strokeColor=#82b366;" parent="1" vertex="1">
          <mxGeometry x="414" y="1040" width="120" height="60" as="geometry" />
        </mxCell>
        <mxCell id="y_OehHx0rF6qJ58uH6Yp-32" value="เพิ่มค่า i=i+1" style="shape=mxgraph.flowchart.process;whiteSpace=wrap;html=1;fontFamily=Inter;fillColor=#d5e8d4;strokeColor=#82b366;" parent="1" vertex="1">
          <mxGeometry x="234" y="1140" width="120" height="40" as="geometry" />
        </mxCell>
        <mxCell id="y_OehHx0rF6qJ58uH6Yp-33" value="แสดงข้อความ &quot;Pos of 32 : &quot; และค่า pos32" style="shape=mxgraph.flowchart.data;whiteSpace=wrap;html=1;fontFamily=Inter;fillColor=#fff2cc;strokeColor=#d6b656;" parent="1" vertex="1">
          <mxGeometry x="44" y="1135" width="150" height="50" as="geometry" />
        </mxCell>
        <mxCell id="y_OehHx0rF6qJ58uH6Yp-34" value="สิ้นสุด" style="shape=mxgraph.flowchart.terminator;whiteSpace=wrap;html=1;fontFamily=Inter;fillColor=#dae8fc;strokeColor=#6c8ebf;" parent="1" vertex="1">
          <mxGeometry x="69" y="1215" width="100" height="40" as="geometry" />
        </mxCell>
        <mxCell id="y_OehHx0rF6qJ58uH6Yp-35" value="" style="endArrow=classic;html=1;exitX=0.5;exitY=1;entryX=0.5;entryY=0;" parent="1" source="y_OehHx0rF6qJ58uH6Yp-2" target="y_OehHx0rF6qJ58uH6Yp-3" edge="1">
          <mxGeometry width="50" height="50" relative="1" as="geometry">
            <mxPoint x="119" y="100" as="sourcePoint" />
            <mxPoint x="119" y="120" as="targetPoint" />
          </mxGeometry>
        </mxCell>
        <mxCell id="y_OehHx0rF6qJ58uH6Yp-36" value="" style="endArrow=classic;html=1;exitX=0.5;exitY=1;entryX=0.5;entryY=0;" parent="1" source="y_OehHx0rF6qJ58uH6Yp-3" target="y_OehHx0rF6qJ58uH6Yp-4" edge="1">
          <mxGeometry width="50" height="50" relative="1" as="geometry">
            <mxPoint x="119" y="170" as="sourcePoint" />
            <mxPoint x="119" y="190" as="targetPoint" />
          </mxGeometry>
        </mxCell>
        <mxCell id="y_OehHx0rF6qJ58uH6Yp-37" value="" style="endArrow=classic;html=1;exitX=0.5;exitY=1;entryX=0.5;entryY=0;" parent="1" source="y_OehHx0rF6qJ58uH6Yp-4" target="y_OehHx0rF6qJ58uH6Yp-5" edge="1">
          <mxGeometry width="50" height="50" relative="1" as="geometry">
            <mxPoint x="119" y="240" as="sourcePoint" />
            <mxPoint x="119" y="260" as="targetPoint" />
          </mxGeometry>
        </mxCell>
        <mxCell id="y_OehHx0rF6qJ58uH6Yp-38" value="" style="endArrow=classic;html=1;exitX=0.5;exitY=1;entryX=0.5;entryY=0;" parent="1" source="y_OehHx0rF6qJ58uH6Yp-5" target="y_OehHx0rF6qJ58uH6Yp-6" edge="1">
          <mxGeometry width="50" height="50" relative="1" as="geometry">
            <mxPoint x="119" y="310" as="sourcePoint" />
            <mxPoint x="119" y="330" as="targetPoint" />
          </mxGeometry>
        </mxCell>
        <mxCell id="y_OehHx0rF6qJ58uH6Yp-39" value="จริง" style="endArrow=classic;html=1;exitX=1;exitY=0.5;entryX=0;entryY=0.5;" parent="1" source="y_OehHx0rF6qJ58uH6Yp-6" target="y_OehHx0rF6qJ58uH6Yp-7" edge="1">
          <mxGeometry width="50" height="50" relative="1" as="geometry">
            <mxPoint x="174" y="365" as="sourcePoint" />
            <mxPoint x="234" y="365" as="targetPoint" />
          </mxGeometry>
        </mxCell>
        <mxCell id="y_OehHx0rF6qJ58uH6Yp-40" value="เท็จ" style="endArrow=classic;html=1;exitX=0.5;exitY=1;entryX=0.5;entryY=0;" parent="1" source="y_OehHx0rF6qJ58uH6Yp-6" target="y_OehHx0rF6qJ58uH6Yp-11" edge="1">
          <mxGeometry width="50" height="50" relative="1" as="geometry">
            <mxPoint x="119" y="400" as="sourcePoint" />
            <mxPoint x="119" y="430" as="targetPoint" />
          </mxGeometry>
        </mxCell>
        <mxCell id="y_OehHx0rF6qJ58uH6Yp-41" value="" style="endArrow=classic;html=1;exitX=1;exitY=0.5;entryX=0;entryY=0.5;" parent="1" source="y_OehHx0rF6qJ58uH6Yp-7" target="y_OehHx0rF6qJ58uH6Yp-8" edge="1">
          <mxGeometry width="50" height="50" relative="1" as="geometry">
            <mxPoint x="354" y="365" as="sourcePoint" />
            <mxPoint x="414" y="365" as="targetPoint" />
          </mxGeometry>
        </mxCell>
        <mxCell id="y_OehHx0rF6qJ58uH6Yp-42" value="จริง" style="endArrow=classic;html=1;exitX=1;exitY=0.5;entryX=0;entryY=0.5;" parent="1" source="y_OehHx0rF6qJ58uH6Yp-8" target="y_OehHx0rF6qJ58uH6Yp-9" edge="1">
          <mxGeometry width="50" height="50" relative="1" as="geometry">
            <mxPoint x="524" y="365" as="sourcePoint" />
            <mxPoint x="574" y="365" as="targetPoint" />
          </mxGeometry>
        </mxCell>
        <mxCell id="y_OehHx0rF6qJ58uH6Yp-43" value="เท็จ" style="endArrow=classic;html=1;exitX=0.5;exitY=1;entryX=0.5;entryY=0;" parent="1" source="y_OehHx0rF6qJ58uH6Yp-8" target="y_OehHx0rF6qJ58uH6Yp-10" edge="1">
          <mxGeometry width="50" height="50" relative="1" as="geometry">
            <mxPoint x="469" y="400" as="sourcePoint" />
            <mxPoint x="494" y="450" as="targetPoint" />
            <Array as="points" />
          </mxGeometry>
        </mxCell>
        <mxCell id="y_OehHx0rF6qJ58uH6Yp-44" value="" style="endArrow=classic;html=1;exitX=0.5;exitY=1;" parent="1" source="y_OehHx0rF6qJ58uH6Yp-9" edge="1">
          <mxGeometry width="50" height="50" relative="1" as="geometry">
            <mxPoint x="634" y="395" as="sourcePoint" />
            <mxPoint x="554" y="470" as="targetPoint" />
            <Array as="points">
              <mxPoint x="710" y="430" />
              <mxPoint x="710" y="470" />
              <mxPoint x="554" y="470" />
            </Array>
          </mxGeometry>
        </mxCell>
        <mxCell id="y_OehHx0rF6qJ58uH6Yp-45" value="" style="endArrow=classic;html=1;exitX=0;exitY=0.5;entryX=1;entryY=0.5;dashed=1;" parent="1" source="y_OehHx0rF6qJ58uH6Yp-10" target="y_OehHx0rF6qJ58uH6Yp-6" edge="1">
          <mxGeometry width="50" height="50" relative="1" as="geometry">
            <mxPoint x="434" y="470" as="sourcePoint" />
            <mxPoint x="174" y="365" as="targetPoint" />
            <Array as="points">
              <mxPoint x="394" y="470" />
              <mxPoint x="394" y="410" />
              <mxPoint x="190" y="410" />
            </Array>
          </mxGeometry>
        </mxCell>
        <mxCell id="y_OehHx0rF6qJ58uH6Yp-46" value="" style="endArrow=classic;html=1;exitX=0.5;exitY=1;entryX=0.5;entryY=0;" parent="1" source="y_OehHx0rF6qJ58uH6Yp-11" target="y_OehHx0rF6qJ58uH6Yp-12" edge="1">
          <mxGeometry width="50" height="50" relative="1" as="geometry">
            <mxPoint x="119" y="480" as="sourcePoint" />
            <mxPoint x="119" y="500" as="targetPoint" />
          </mxGeometry>
        </mxCell>
        <mxCell id="y_OehHx0rF6qJ58uH6Yp-47" value="" style="endArrow=classic;html=1;exitX=0.5;exitY=1;entryX=0.5;entryY=0;" parent="1" source="y_OehHx0rF6qJ58uH6Yp-12" target="y_OehHx0rF6qJ58uH6Yp-13" edge="1">
          <mxGeometry width="50" height="50" relative="1" as="geometry">
            <mxPoint x="119" y="550" as="sourcePoint" />
            <mxPoint x="119" y="570" as="targetPoint" />
          </mxGeometry>
        </mxCell>
        <mxCell id="y_OehHx0rF6qJ58uH6Yp-48" value="จริง" style="endArrow=classic;html=1;exitX=1;exitY=0.5;entryX=0;entryY=0.5;" parent="1" source="y_OehHx0rF6qJ58uH6Yp-13" target="y_OehHx0rF6qJ58uH6Yp-14" edge="1">
          <mxGeometry width="50" height="50" relative="1" as="geometry">
            <mxPoint x="174" y="605" as="sourcePoint" />
            <mxPoint x="234" y="605" as="targetPoint" />
          </mxGeometry>
        </mxCell>
        <mxCell id="y_OehHx0rF6qJ58uH6Yp-49" value="เท็จ" style="endArrow=classic;html=1;exitX=0.5;exitY=1;entryX=0.5;entryY=0;" parent="1" source="y_OehHx0rF6qJ58uH6Yp-13" target="y_OehHx0rF6qJ58uH6Yp-20" edge="1">
          <mxGeometry width="50" height="50" relative="1" as="geometry">
            <mxPoint x="119" y="640" as="sourcePoint" />
            <mxPoint x="119" y="665" as="targetPoint" />
          </mxGeometry>
        </mxCell>
        <mxCell id="y_OehHx0rF6qJ58uH6Yp-50" value="" style="endArrow=classic;html=1;exitX=1;exitY=0.5;entryX=0;entryY=0.5;" parent="1" source="y_OehHx0rF6qJ58uH6Yp-14" target="y_OehHx0rF6qJ58uH6Yp-15" edge="1">
          <mxGeometry width="50" height="50" relative="1" as="geometry">
            <mxPoint x="384" y="605" as="sourcePoint" />
            <mxPoint x="464" y="605" as="targetPoint" />
          </mxGeometry>
        </mxCell>
        <mxCell id="y_OehHx0rF6qJ58uH6Yp-51" value="จริง" style="endArrow=classic;html=1;exitX=0.5;exitY=0;" parent="1" source="y_OehHx0rF6qJ58uH6Yp-15" target="y_OehHx0rF6qJ58uH6Yp-16" edge="1">
          <mxGeometry width="50" height="50" relative="1" as="geometry">
            <mxPoint x="524" y="570" as="sourcePoint" />
            <mxPoint x="624" y="540" as="targetPoint" />
            <Array as="points">
              <mxPoint x="524" y="500" />
              <mxPoint x="610" y="500" />
              <mxPoint x="684" y="500" />
            </Array>
          </mxGeometry>
        </mxCell>
        <mxCell id="y_OehHx0rF6qJ58uH6Yp-52" value="เท็จ" style="endArrow=classic;html=1;exitX=0.5;exitY=1;entryX=1;entryY=0.5;exitDx=0;exitDy=0;exitPerimeter=0;" parent="1" source="y_OehHx0rF6qJ58uH6Yp-15" target="y_OehHx0rF6qJ58uH6Yp-18" edge="1">
          <mxGeometry width="50" height="50" relative="1" as="geometry">
            <mxPoint x="464" y="605" as="sourcePoint" />
            <mxPoint x="384" y="700" as="targetPoint" />
            <Array as="points">
              <mxPoint x="524" y="700" />
              <mxPoint x="434" y="700" />
            </Array>
          </mxGeometry>
        </mxCell>
        <mxCell id="y_OehHx0rF6qJ58uH6Yp-53" value="" style="endArrow=classic;html=1;exitX=0.5;exitY=1;entryX=0.5;entryY=0;" parent="1" source="y_OehHx0rF6qJ58uH6Yp-16" target="y_OehHx0rF6qJ58uH6Yp-17" edge="1">
          <mxGeometry width="50" height="50" relative="1" as="geometry">
            <mxPoint x="684" y="570" as="sourcePoint" />
            <mxPoint x="684" y="600" as="targetPoint" />
          </mxGeometry>
        </mxCell>
        <mxCell id="y_OehHx0rF6qJ58uH6Yp-54" value="" style="endArrow=classic;html=1;exitX=1;exitY=0.5;entryX=1;entryY=0.5;dashed=1;entryDx=0;entryDy=0;entryPerimeter=0;" parent="1" source="y_OehHx0rF6qJ58uH6Yp-17" target="y_OehHx0rF6qJ58uH6Yp-15" edge="1">
          <mxGeometry width="50" height="50" relative="1" as="geometry">
            <mxPoint x="744" y="620" as="sourcePoint" />
            <mxPoint x="584" y="605" as="targetPoint" />
            <Array as="points">
              <mxPoint x="784" y="620" />
              <mxPoint x="784" y="710" />
              <mxPoint x="610" y="710" />
              <mxPoint x="610" y="605" />
            </Array>
          </mxGeometry>
        </mxCell>
        <mxCell id="y_OehHx0rF6qJ58uH6Yp-55" value="" style="endArrow=classic;html=1;exitX=0.5;exitY=1;entryX=0.5;entryY=0;" parent="1" source="y_OehHx0rF6qJ58uH6Yp-18" target="y_OehHx0rF6qJ58uH6Yp-19" edge="1">
          <mxGeometry width="50" height="50" relative="1" as="geometry">
            <mxPoint x="309" y="730" as="sourcePoint" />
            <mxPoint x="309" y="760" as="targetPoint" />
          </mxGeometry>
        </mxCell>
        <mxCell id="y_OehHx0rF6qJ58uH6Yp-56" value="" style="endArrow=classic;html=1;exitX=0;exitY=0.5;entryX=1;entryY=0.5;dashed=1;exitDx=0;exitDy=0;exitPerimeter=0;" parent="1" source="y_OehHx0rF6qJ58uH6Yp-19" target="y_OehHx0rF6qJ58uH6Yp-13" edge="1">
          <mxGeometry width="50" height="50" relative="1" as="geometry">
            <mxPoint x="309" y="760" as="sourcePoint" />
            <mxPoint x="174" y="605" as="targetPoint" />
            <Array as="points">
              <mxPoint x="200" y="780" />
              <mxPoint x="200" y="750" />
              <mxPoint x="200" y="720" />
              <mxPoint x="200" y="630" />
            </Array>
          </mxGeometry>
        </mxCell>
        <mxCell id="y_OehHx0rF6qJ58uH6Yp-57" value="" style="endArrow=classic;html=1;exitX=0.5;exitY=1;entryX=0.5;entryY=0;" parent="1" source="y_OehHx0rF6qJ58uH6Yp-20" target="y_OehHx0rF6qJ58uH6Yp-21" edge="1">
          <mxGeometry width="50" height="50" relative="1" as="geometry">
            <mxPoint x="119" y="715" as="sourcePoint" />
            <mxPoint x="119" y="735" as="targetPoint" />
          </mxGeometry>
        </mxCell>
        <mxCell id="y_OehHx0rF6qJ58uH6Yp-58" value="" style="endArrow=classic;html=1;exitX=0.5;exitY=1;entryX=0.5;entryY=0;" parent="1" source="y_OehHx0rF6qJ58uH6Yp-21" target="y_OehHx0rF6qJ58uH6Yp-22" edge="1">
          <mxGeometry width="50" height="50" relative="1" as="geometry">
            <mxPoint x="119" y="785" as="sourcePoint" />
            <mxPoint x="119" y="805" as="targetPoint" />
          </mxGeometry>
        </mxCell>
        <mxCell id="y_OehHx0rF6qJ58uH6Yp-59" value="จริง" style="endArrow=classic;html=1;exitX=1;exitY=0.5;entryX=0;entryY=0.5;" parent="1" source="y_OehHx0rF6qJ58uH6Yp-22" target="y_OehHx0rF6qJ58uH6Yp-23" edge="1">
          <mxGeometry width="50" height="50" relative="1" as="geometry">
            <mxPoint x="174" y="840" as="sourcePoint" />
            <mxPoint x="234" y="840" as="targetPoint" />
          </mxGeometry>
        </mxCell>
        <mxCell id="y_OehHx0rF6qJ58uH6Yp-60" value="เท็จ" style="endArrow=classic;html=1;exitX=0.5;exitY=1;entryX=0.5;entryY=0;" parent="1" source="y_OehHx0rF6qJ58uH6Yp-22" target="y_OehHx0rF6qJ58uH6Yp-27" edge="1">
          <mxGeometry width="50" height="50" relative="1" as="geometry">
            <mxPoint x="119" y="875" as="sourcePoint" />
            <mxPoint x="119" y="895" as="targetPoint" />
          </mxGeometry>
        </mxCell>
        <mxCell id="y_OehHx0rF6qJ58uH6Yp-61" value="" style="endArrow=classic;html=1;exitX=1;exitY=0.5;entryX=0;entryY=0.5;" parent="1" source="y_OehHx0rF6qJ58uH6Yp-23" target="y_OehHx0rF6qJ58uH6Yp-24" edge="1">
          <mxGeometry width="50" height="50" relative="1" as="geometry">
            <mxPoint x="354" y="840" as="sourcePoint" />
            <mxPoint x="414" y="840" as="targetPoint" />
          </mxGeometry>
        </mxCell>
        <mxCell id="y_OehHx0rF6qJ58uH6Yp-62" value="จริง" style="endArrow=classic;html=1;exitX=1;exitY=0.5;entryX=0;entryY=0.5;" parent="1" source="y_OehHx0rF6qJ58uH6Yp-24" target="y_OehHx0rF6qJ58uH6Yp-25" edge="1">
          <mxGeometry width="50" height="50" relative="1" as="geometry">
            <mxPoint x="524" y="840" as="sourcePoint" />
            <mxPoint x="574" y="840" as="targetPoint" />
          </mxGeometry>
        </mxCell>
        <mxCell id="y_OehHx0rF6qJ58uH6Yp-63" value="เท็จ" style="endArrow=classic;html=1;exitX=0.5;exitY=1;entryX=0.5;entryY=0;" parent="1" source="y_OehHx0rF6qJ58uH6Yp-24" target="y_OehHx0rF6qJ58uH6Yp-26" edge="1">
          <mxGeometry width="50" height="50" relative="1" as="geometry">
            <mxPoint x="469" y="875" as="sourcePoint" />
            <mxPoint x="494" y="920" as="targetPoint" />
            <Array as="points" />
          </mxGeometry>
        </mxCell>
        <mxCell id="y_OehHx0rF6qJ58uH6Yp-64" value="" style="endArrow=classic;html=1;exitX=0.5;exitY=1;entryX=1;entryY=0.5;entryDx=0;entryDy=0;entryPerimeter=0;" parent="1" source="y_OehHx0rF6qJ58uH6Yp-25" target="y_OehHx0rF6qJ58uH6Yp-26" edge="1">
          <mxGeometry width="50" height="50" relative="1" as="geometry">
            <mxPoint x="634" y="870" as="sourcePoint" />
            <mxPoint x="560" y="940" as="targetPoint" />
            <Array as="points">
              <mxPoint x="660" y="900" />
              <mxPoint x="660" y="940" />
            </Array>
          </mxGeometry>
        </mxCell>
        <mxCell id="y_OehHx0rF6qJ58uH6Yp-65" value="" style="endArrow=classic;html=1;exitX=0;exitY=0.5;entryX=1;entryY=0.5;dashed=1;" parent="1" source="y_OehHx0rF6qJ58uH6Yp-26" target="y_OehHx0rF6qJ58uH6Yp-22" edge="1">
          <mxGeometry width="50" height="50" relative="1" as="geometry">
            <mxPoint x="434" y="940" as="sourcePoint" />
            <mxPoint x="174" y="840" as="targetPoint" />
            <Array as="points">
              <mxPoint x="400" y="940" />
              <mxPoint x="400" y="890" />
              <mxPoint x="200" y="890" />
            </Array>
          </mxGeometry>
        </mxCell>
        <mxCell id="y_OehHx0rF6qJ58uH6Yp-66" value="" style="endArrow=classic;html=1;exitX=0.5;exitY=1;entryX=0.5;entryY=0;" parent="1" source="y_OehHx0rF6qJ58uH6Yp-27" target="y_OehHx0rF6qJ58uH6Yp-28" edge="1">
          <mxGeometry width="50" height="50" relative="1" as="geometry">
            <mxPoint x="119" y="945" as="sourcePoint" />
            <mxPoint x="119" y="965" as="targetPoint" />
          </mxGeometry>
        </mxCell>
        <mxCell id="y_OehHx0rF6qJ58uH6Yp-67" value="" style="endArrow=classic;html=1;exitX=0.5;exitY=1;entryX=0.5;entryY=0;" parent="1" source="y_OehHx0rF6qJ58uH6Yp-28" target="y_OehHx0rF6qJ58uH6Yp-29" edge="1">
          <mxGeometry width="50" height="50" relative="1" as="geometry">
            <mxPoint x="119" y="1015" as="sourcePoint" />
            <mxPoint x="119" y="1035" as="targetPoint" />
          </mxGeometry>
        </mxCell>
        <mxCell id="y_OehHx0rF6qJ58uH6Yp-68" value="จริง" style="endArrow=classic;html=1;exitX=1;exitY=0.5;entryX=0;entryY=0.5;" parent="1" source="y_OehHx0rF6qJ58uH6Yp-29" target="y_OehHx0rF6qJ58uH6Yp-30" edge="1">
          <mxGeometry width="50" height="50" relative="1" as="geometry">
            <mxPoint x="174" y="1070" as="sourcePoint" />
            <mxPoint x="234" y="1070" as="targetPoint" />
          </mxGeometry>
        </mxCell>
        <mxCell id="y_OehHx0rF6qJ58uH6Yp-69" value="เท็จ" style="endArrow=classic;html=1;exitX=0.5;exitY=1;entryX=0.5;entryY=0;" parent="1" source="y_OehHx0rF6qJ58uH6Yp-29" target="y_OehHx0rF6qJ58uH6Yp-33" edge="1">
          <mxGeometry width="50" height="50" relative="1" as="geometry">
            <mxPoint x="119" y="1105" as="sourcePoint" />
            <mxPoint x="119" y="1135" as="targetPoint" />
          </mxGeometry>
        </mxCell>
        <mxCell id="y_OehHx0rF6qJ58uH6Yp-70" value="จริง" style="endArrow=classic;html=1;exitX=1;exitY=0.5;entryX=0;entryY=0.5;" parent="1" source="y_OehHx0rF6qJ58uH6Yp-30" target="y_OehHx0rF6qJ58uH6Yp-31" edge="1">
          <mxGeometry width="50" height="50" relative="1" as="geometry">
            <mxPoint x="354" y="1070" as="sourcePoint" />
            <mxPoint x="414" y="1070" as="targetPoint" />
          </mxGeometry>
        </mxCell>
        <mxCell id="y_OehHx0rF6qJ58uH6Yp-71" value="" style="endArrow=classic;html=1;exitX=0.5;exitY=1;entryX=1;entryY=0.5;entryDx=0;entryDy=0;entryPerimeter=0;" parent="1" source="y_OehHx0rF6qJ58uH6Yp-31" target="y_OehHx0rF6qJ58uH6Yp-32" edge="1">
          <mxGeometry width="50" height="50" relative="1" as="geometry">
            <mxPoint x="474" y="1100" as="sourcePoint" />
            <mxPoint x="294" y="1140" as="targetPoint" />
            <Array as="points">
              <mxPoint x="474" y="1120" />
              <mxPoint x="474" y="1160" />
            </Array>
          </mxGeometry>
        </mxCell>
        <mxCell id="y_OehHx0rF6qJ58uH6Yp-72" value="เท็จ" style="endArrow=classic;html=1;exitX=0.5;exitY=1;entryX=0.5;entryY=0;" parent="1" source="y_OehHx0rF6qJ58uH6Yp-30" target="y_OehHx0rF6qJ58uH6Yp-32" edge="1">
          <mxGeometry width="50" height="50" relative="1" as="geometry">
            <mxPoint x="294" y="1105" as="sourcePoint" />
            <mxPoint x="294" y="1140" as="targetPoint" />
          </mxGeometry>
        </mxCell>
        <mxCell id="y_OehHx0rF6qJ58uH6Yp-73" value="" style="endArrow=classic;html=1;exitX=0;exitY=0.5;entryX=1;entryY=0.5;dashed=1;" parent="1" source="y_OehHx0rF6qJ58uH6Yp-32" target="y_OehHx0rF6qJ58uH6Yp-29" edge="1">
          <mxGeometry width="50" height="50" relative="1" as="geometry">
            <mxPoint x="234" y="1160" as="sourcePoint" />
            <mxPoint x="174" y="1070" as="targetPoint" />
            <Array as="points">
              <mxPoint x="200" y="1160" />
              <mxPoint x="200" y="1090" />
              <mxPoint x="180" y="1090" />
            </Array>
          </mxGeometry>
        </mxCell>
        <mxCell id="y_OehHx0rF6qJ58uH6Yp-74" value="" style="endArrow=classic;html=1;exitX=0.5;exitY=1;entryX=0.5;entryY=0;" parent="1" source="y_OehHx0rF6qJ58uH6Yp-33" target="y_OehHx0rF6qJ58uH6Yp-34" edge="1">
          <mxGeometry width="50" height="50" relative="1" as="geometry">
            <mxPoint x="119" y="1185" as="sourcePoint" />
            <mxPoint x="119" y="1215" as="targetPoint" />
          </mxGeometry>
        </mxCell>
      </root>
    </mxGraphModel>
  </diagram>
</mxfile>
